<svg xmlns="http://www.w3.org/2000/svg" viewBox="0 0 278.65 62.25">
  <defs>
    <style>.cls-1{fill:#333}.cls-2{fill:#c69}.cls-3{fill:#fff}</style>
  </defs>
  <title>scssfmt</title>
  <path class="cls-1" d="M147.25 44.76a10.42 10.42 0 0 1-6.1 3.17 16 16 0 0 1-6 0 1.55 1.55 0 0 0-1.49.56 18.69 18.69 0 0 1-14 6 20.16 20.16 0 0 1-2.74-.19q-1.37-.19-2.8-.5a11.63 11.63 0 0 1-6.66-3.61 5.85 5.85 0 0 1-1.74-4.92q.56-4.54 5.66-5 2.55-.25 9.83 1.43l8.21 2.05a1.4 1.4 0 0 0 1.62-.75 11.44 11.44 0 0 0 1.68-5.35q0-4.48-7.22-7.84-7-3.24-7-9.52a11.37 11.37 0 0 1 1.31-5.1 15 15 0 0 1 6.29-6.47 17.93 17.93 0 0 1 8.71-2.24h.93l.93.09a10 10 0 0 1 6.16 2.61 5.42 5.42 0 0 1 1.68 3.82 3.11 3.11 0 0 1-.25 1.37q-.93 2.18-2.68 1.74a.87.87 0 0 1-.59-.65l-.34-1.15q-.81-1.93-4-2.86a9.3 9.3 0 0 0-2.49-.31q-6.6 0-9.09 5a7 7 0 0 0-.75 2.86q0 2.93 4 5.23l6.35 3.55a9.58 9.58 0 0 1 4.11 7.84 20.13 20.13 0 0 1-1.43 7.22 4.66 4.66 0 0 0-.44 1.12c0 .17.17.29.5.37a9.79 9.79 0 0 0 3 .44 6.42 6.42 0 0 0 3-1.12 14.93 14.93 0 0 0 1.93-1.34 8.27 8.27 0 0 0 1.49-1.59q.31-.37.5.19a5.11 5.11 0 0 1 .31 2.43 2.48 2.48 0 0 1-.39 1.42zM127 47.5q0-.43-1.43-.75-2.61-.62-5.76-1.31t-7-1.37a2.38 2.38 0 0 0-1.8.56 2 2 0 0 0-.68 1.56 2.3 2.3 0 0 0 .93 1.87 10.25 10.25 0 0 0 6.91 2.24 16.94 16.94 0 0 0 7.84-2q.99-.43.99-.8z"/>
  <path class="cls-1" d="M164.24 44.76a10.9 10.9 0 0 1-6.1 3.17q-.75.12-1.59.19t-1.77.06a19.31 19.31 0 0 1-9.09-2A8.83 8.83 0 0 1 140.9 38a12.15 12.15 0 0 1 .19-2.12 15.93 15.93 0 0 1 5.41-10.14 11.6 11.6 0 0 1 7.9-2.92q6 .31 6.29 3.8.25 2.74-1.68 3.73a1.31 1.31 0 0 1-1.12.12.69.69 0 0 1-.72-.37 6.74 6.74 0 0 1-.28-.84 3.19 3.19 0 0 0-.4-.9 1.49 1.49 0 0 0-1.09-.56 5.73 5.73 0 0 0-3.92 1.06q-2.74 2-3.48 6.47a12.66 12.66 0 0 0-.25 2.49 6.39 6.39 0 0 0 2.18 4.92q2.43 2.3 7.47 2a7.9 7.9 0 0 0 3-1.12 17.24 17.24 0 0 0 1.93-1.31 7.54 7.54 0 0 0 1.49-1.56q.31-.37.5.19a5.1 5.1 0 0 1 .31 2.43 2.47 2.47 0 0 1-.39 1.39z"/>
  <path class="cls-1" d="M185.34 44.76a10.91 10.91 0 0 1-6.1 3.17 18.51 18.51 0 0 1-4.11.19 8 8 0 0 1-3.49-.75.91.91 0 0 0-.75-.06 16.23 16.23 0 0 0-1.56.62 22.26 22.26 0 0 1-3.3.37q-4.54.25-7.09-2.36-.37-.31-.62-.06a10.73 10.73 0 0 1-4.73 2.05c-.37 0-.58-.12-.62-.37a4.81 4.81 0 0 1-.44-2.05c0-.41.08-.64.25-.68q3.24-.56 6.35-4 .87-1 2.12-2.64t2.86-4q3.61-5.1 4.17-6.78a2.43 2.43 0 0 0-.28-1.21 3.9 3.9 0 0 1-.34-1.59 4.6 4.6 0 0 1 0-.53c0-.19.05-.38.09-.59a3.85 3.85 0 0 1 2-2.55 6 6 0 0 1 3.36-1.06q3 .12 3 2.43a7.34 7.34 0 0 1-.81 2.12q-.44.87-.69 1.4l-.37.78q-.31.87 0 1.12a5.64 5.64 0 0 1 1.18 1.37 23.21 23.21 0 0 1 1.18 2.12 12.59 12.59 0 0 1 1.43 6.29 10 10 0 0 1-.34 1.9 11 11 0 0 1-.9 2.21 11.22 11.22 0 0 1-1.49 2.24q-.44.44.06.78a7.13 7.13 0 0 0 3.11.22 7.45 7.45 0 0 0 3-1.12 10.05 10.05 0 0 0 3.53-2.96q.31-.37.5.19a5.11 5.11 0 0 1 .31 2.43 2.49 2.49 0 0 1-.47 1.36zm-13.94-8.28a9.14 9.14 0 0 0-.68-3.8q-.19-.43-.5-.31c-.21 0-.37.15-.5.44a44.89 44.89 0 0 1-2.93 4.11q-2.37 3-3.17 3.92a1.37 1.37 0 0 0-.31.62c0 .25.25.46.75.62a2.85 2.85 0 0 1 1.43 2.12q.12.5 1.31.12 3-1 4.17-4.79a9.67 9.67 0 0 0 .42-3.05z"/>
  <path class="cls-1" d="M206.43 44.76a10.91 10.91 0 0 1-6.1 3.17 18.51 18.51 0 0 1-4.11.19 8 8 0 0 1-3.49-.75.91.91 0 0 0-.75-.06 16.23 16.23 0 0 0-1.56.62 22.26 22.26 0 0 1-3.3.37q-4.54.25-7.09-2.36-.37-.31-.62-.06a10.73 10.73 0 0 1-4.73 2.05c-.37 0-.58-.12-.62-.37a4.81 4.81 0 0 1-.44-2.05c0-.41.08-.64.25-.68q3.24-.56 6.35-4 .87-1 2.12-2.64t2.86-4q3.61-5.1 4.17-6.78a2.43 2.43 0 0 0-.28-1.21 3.9 3.9 0 0 1-.34-1.59 4.6 4.6 0 0 1 0-.53c0-.19.05-.38.09-.59a3.85 3.85 0 0 1 2-2.55 6 6 0 0 1 3.36-1.06q3 .12 3 2.43a7.34 7.34 0 0 1-.81 2.12q-.44.87-.69 1.4l-.37.78q-.31.87 0 1.12a5.64 5.64 0 0 1 1.18 1.37 23.21 23.21 0 0 1 1.18 2.12 12.59 12.59 0 0 1 1.43 6.29 10 10 0 0 1-.34 1.9 11 11 0 0 1-.9 2.21 11.22 11.22 0 0 1-1.49 2.24q-.44.44.06.78a7.13 7.13 0 0 0 3.11.22 7.45 7.45 0 0 0 3-1.12 10.05 10.05 0 0 0 3.42-2.92q.31-.37.5.19a5.11 5.11 0 0 1 .31 2.43 2.49 2.49 0 0 1-.36 1.32zm-13.94-8.28a9.14 9.14 0 0 0-.68-3.8q-.19-.43-.5-.31c-.21 0-.37.15-.5.44a44.89 44.89 0 0 1-2.93 4.11q-2.37 3-3.17 3.92a1.37 1.37 0 0 0-.31.62c0 .25.25.46.75.62a2.85 2.85 0 0 1 1.43 2.12q.12.5 1.31.12 3-1 4.17-4.79a9.67 9.67 0 0 0 .43-3.05z"/>
  <path class="cls-1" d="M225.72 44.76a10.93 10.93 0 0 1-1.93 1.56 9.5 9.5 0 0 1-4.17 1.62 13.23 13.23 0 0 1-4.73.12q-.69-.12-.75.44a22.93 22.93 0 0 1-.37 2.27 17.56 17.56 0 0 1-.68 2.33q-3.11 9.15-9.71 9.15a9 9 0 0 1-2.18-.25q-3.11-.69-3.11-5.54a24 24 0 0 1 .37-3.86q.37-2.24 1.06-5.23.25-1 1-3.73t2-7.34a161.64 161.64 0 0 1 5.23-15.75q6-14.63 12.51-14.63a7.74 7.74 0 0 1 1.62.19q4.48 1.12 4.48 6.22 0 3.55-2.49 10a35.14 35.14 0 0 1-6.17 10.17 31.87 31.87 0 0 1-6.16 6q-.62.44-.62.81t.93 1.12a4.91 4.91 0 0 1 1.68 2.68 1.55 1.55 0 0 0 .87 1.06 14.07 14.07 0 0 0 4.48.68 6.42 6.42 0 0 0 3-1.12 15 15 0 0 0 1.93-1.34 8.28 8.28 0 0 0 1.49-1.59q.31-.37.5.19a5.1 5.1 0 0 1 .31 2.43 2.48 2.48 0 0 1-.39 1.34zm-16.37 2.18a11 11 0 0 1-1.81-1.49.54.54 0 0 0-.37-.19c-.25 0-.46.27-.62.81q-.25.56-1.43 4.92-1.31 4.79-1.31 5.23 0 1.18.87 1.37 1.8.5 4-5.54a12.45 12.45 0 0 0 .93-4.23q.06-.69-.25-.88zm6.29-29.5q-1.25 3.42-2.61 7.28t-3 8.34a4.28 4.28 0 0 0-.37 1.31c0 .12 0 .19.12.19s.41-.25.87-.75a67.31 67.31 0 0 0 8.22-13.19q2.61-5.41 2.61-7.78 0-1.68-1.31-1.87-2.1-.25-4.53 6.47z"/>
  <path class="cls-1" d="M265.49 44.76a10.9 10.9 0 0 1-6.1 3.17 20.92 20.92 0 0 1-3.86.37 14 14 0 0 1-4.67-.68q-3.42-1.31-3.42-4.23a20.7 20.7 0 0 1 1.56-6q.68-1.8 1.31-3.27t1.18-2.58a5.84 5.84 0 0 0 .81-2.24.83.83 0 0 0-.93-.93q-.87 0-2.55 2.12-1.12 1.43-2.46 3.36t-3 4.42q-2 3.05-3.17 5.17a19.41 19.41 0 0 0-1.56 3.3q-.5 1.43-3.55 1.43-3.42 0-2.93-1.43 1.43-3.79 3.11-8t3.49-8.93q.62-1.74-.56-1.93t-3.55 2.49a57.68 57.68 0 0 0-5.41 8.71q-3.23 5.92-4.07 7.8-.5 1.25-3.49 1.24T219 46.63q1.49-5.29 3.08-11t3.33-12.11q.43-1.87 3-1.87a5.11 5.11 0 0 1 2.18.44q1.37.56 1.37 1.49a1.74 1.74 0 0 1-.25.87 30.29 30.29 0 0 0-1.44 3.55 17.87 17.87 0 0 0-1.06 3.61q0 .93 1.06-.68 5.48-8.28 10.33-8.28a4 4 0 0 1 .5 0l.56.09q3.11.56 3.11 3.49a11.35 11.35 0 0 1-1.18 4.54q-.5 1.06-.19 1.06s.68-.79 1.93-2.37a29.41 29.41 0 0 1 4.11-4.42q2.93-2.36 5.29-2.37a5.28 5.28 0 0 1 2.49.62 3.39 3.39 0 0 1 2 3.36 8.68 8.68 0 0 1-.37 2.37q-.56 2.18-2.43 7.1-1 2.68-1.49 4t-.56 1.49a4.37 4.37 0 0 0-.19 1.06 1.57 1.57 0 0 0 .82 1.53 6.26 6.26 0 0 0 3.61.62 7.45 7.45 0 0 0 3-1.12 10.05 10.05 0 0 0 3.42-2.92q.31-.37.5.19a5.1 5.1 0 0 1 .31 2.43 2.48 2.48 0 0 1-.35 1.36z"/>
  <path class="cls-1" d="M278.19 44.76a10.91 10.91 0 0 1-6.1 3.17 18.21 18.21 0 0 1-3.17.31 10.71 10.71 0 0 1-5.67-1.24q-3.05-2-2.74-6.16a39.79 39.79 0 0 1 1.62-6.72q.75-2.61 1.12-4t.44-1.49c0-.29-.15-.5-.56-.62s-.7 0-1.09 0l-1.34-.09q-.56-.12-.25-.87l.28-.87q.16-.5.4-1.18a1.49 1.49 0 0 1 1.31-.62h1a4.87 4.87 0 0 0 .62.06h.37q.31 0 .75-.62.75-2.68 1.62-5.57t1.87-6.13a1.84 1.84 0 0 1 1.31-.93 8.93 8.93 0 0 1 4.67 0q.93.31.68 1.87-.87 2.61-1.74 5.32t-1.74 5.57q-.13.56.5.75h1.68l2 .09c.25 0 .41.31.5.81a4 4 0 0 1-.44 2.12.87.87 0 0 1-.81.56q.25-.06-4.23-.06a.8.8 0 0 0-.75.56q-.69 2.49-1.52 5.35t-1.84 6.1a2.93 2.93 0 0 0 .44 3.11 5.38 5.38 0 0 0 4 1.49 6.42 6.42 0 0 0 3-1.12 15 15 0 0 0 1.93-1.34 8.25 8.25 0 0 0 1.49-1.59q.31-.37.5.19a5.11 5.11 0 0 1 .31 2.43 2.49 2.49 0 0 1-.42 1.36z"/>
  <path class="cls-2" d="M97 30.21a12 12 0 0 0-5.11-3.11l-.2-.07L81.86 5.5c-.18-.69-1-2.7-5-3.16L63.58 0a1.06 1.06 0 0 0-.35 0 4 4 0 0 0-2.49 1.64c-.26.41-1.42 1.89-.54 4.93a2.55 2.55 0 0 0 2.35 2.12h.18l14.94-1 7.18 17.81-.85-.05a62.92 62.92 0 0 0-13.16.37 34.59 34.59 0 0 0-17.65 6.31l-.13.1h-7.49l-.13-.1A34.27 34.27 0 0 0 28 25.84a63.85 63.85 0 0 0-13.14-.39l-.83.07 7.18-17.8 15 1h.17c2-.36 2.26-1.77 2.28-1.93.93-3.29-.31-4.81-.46-5A4.11 4.11 0 0 0 35.58 0a1.07 1.07 0 0 0-.35 0l-13.1 2.33c-4.37.5-5 2.71-5.06 3L7.22 26.95 7 27c-3.53 1.25-5 2.75-5.32 3.18-.13.16-3.12 3.78-.87 10.48l.06.18-.05.16a1 1 0 0 0-.1.36c-.25 4.36 1.7 5.41 4 6.62l.13.05.15.14c1.63 2.19 7.68 9.4 17.19 10.17.21 0 17.92 2.37 23.88-13.13a32.38 32.38 0 0 1 2.07-5.32v-.1l.58-.3a3.52 3.52 0 0 1 .73-.08 2.88 2.88 0 0 1 .55.05l.22.07.12.07.31.28a34 34 0 0 1 2.13 5.5C57.33 57.22 69 58.5 73.78 58.5a22 22 0 0 0 2.61-.13c9.4-.77 15.26-7.35 17.34-10.14l.12-.16h.19a1 1 0 0 0 .29-.1c2.12-1.14 4.11-2.21 3.86-6.57a.9.9 0 0 0-.08-.33l-.21-.46.06-.18c2.04-6.51-.88-10.08-.96-10.22zm-62.08 21a24.67 24.67 0 0 1-9 1.87c-3 0-7.7-.74-10.4-3.12-4.59-4.06-7.3-7.53-6.2-13.6a5.77 5.77 0 0 1 .67-2 5.24 5.24 0 0 1 2.51-2 25.24 25.24 0 0 1 10.02-1.86 40.18 40.18 0 0 1 5 .1c3.64.33 14.2 2.92 15 7.71.04.37 1.61 7.69-7.64 12.9zm48.51-.89c-2.73 2.43-7.44 3.18-10.49 3.18a24.61 24.61 0 0 1-8.95-1.85c-9.44-5.28-7.85-12.92-7.77-13.31.67-4.31 9.38-7.23 15.07-7.76 1-.09 2-.13 3.24-.13h1.83a25.32 25.32 0 0 1 10.13 2 5.2 5.2 0 0 1 2.54 2 5.9 5.9 0 0 1 .68 2c1.05 6.2-1.71 9.76-6.33 13.88z"/>
  <path class="cls-3" d="M3.87 38.86v-1.39h1.47v1.39zM4 34.91v-1.4h1.42v1.4zM92.94 37.48l1.35-.08a3.46 3.46 0 0 1-1.1 3.68l-.5-.16a3 3 0 0 0 .25-3.44zm.06-2.57v-1.4h1.43v1.4z"/>
</svg>
